PathFileType	4	(X/Y/Z)	C:\Documents and Settings\mvidt\Desktop\Forward_reach_ACS_12-5-11\acs_static-redo2.trc
DataRate	CameraRate	NumFrames	NumMarkers	Units	OrigDataRate	OrigDataStartFrame	OrigNumFrames
200.00	200.00	      12	10	mm	200.00	1001	      2000
Frame#	Time	R.Clavicle			C7			R.Shoulder			R.Bicep			R.Elbow.Lateral			R.Forearm			R.Radius			Handle			R.Elbow.Medial			R.Ulna			
		X1	Y1	Z1	X2	Y2	Z2	X3	Y3	Z3	X4	Y4	Z4	X5	Y5	Z5	X6	Y6	Z6	X7	Y7	Z7	X8	Y8	Z8	X9	Y9	Z9	X10	Y10	Z10	

1001	5.000	-252.38127	401.31723	326.72501	-387.84100	399.46182	420.23990	-260.54114	247.96124	325.86838	-97.32333	260.26328	272.98990	-7.63676	227.73238	205.21394	37.64272	275.59964	301.36862	138.02843	358.22394	404.11053	207.88988	412.43582	499.19138	-9.17984	311.37485	174.32748	197.57814	307.20618	363.85712	
1002	5.005	-252.38127	401.31723	326.72501	-387.34552	399.25580	420.27667	-260.54114	247.96124	325.86838	-96.80281	260.94781	271.79343	-7.65110	227.70576	205.18591	37.64272	275.59964	301.36862	137.96049	358.02042	404.09613	207.88988	412.43582	499.19138	-9.17984	311.37485	174.32748	197.57814	307.20618	363.85712	
1003	5.010	-252.38127	401.31723	326.72501	-387.82114	399.40088	420.06818	-260.54114	247.96124	325.86838	-96.07381	262.02155	272.13007	-7.66543	227.67917	205.15788	38.01680	275.40759	301.60123	138.54010	358.47998	403.97098	207.88988	412.43582	499.19138	-9.17984	311.37485	174.32748	198.06416	307.05844	364.13675	
1004	5.015	-252.38127	401.31723	326.72501	-387.34552	399.25580	420.27667	-260.43292	247.89211	325.96933	-96.07381	262.02155	272.13007	-7.67977	227.65256	205.12984	38.01680	275.40759	301.60123	138.54010	358.47998	403.97098	207.88988	412.43582	499.19138	-9.29275	311.26071	174.18524	197.57814	307.20618	363.85712	
1005	5.020	-252.02968	401.19925	327.01541	-387.34552	399.25580	420.27667	-260.43292	247.89211	325.96933	-97.32333	260.26328	272.98990	-7.69411	227.62595	205.10181	38.01680	275.40759	301.60123	138.54010	358.47998	403.97098	208.08136	412.55185	499.05594	-9.17984	311.37485	174.32748	197.57814	307.20618	363.85712	
1006	5.025	-252.02968	401.19925	327.01541	-386.94897	398.91550	419.72861	-260.43292	247.89211	325.96933	-97.32333	260.26328	272.98990	-7.70845	227.59933	205.07378	38.01680	275.40759	301.60123	138.54010	358.47998	403.97098	208.08136	412.55185	499.05594	-9.17984	311.37485	174.32748	198.06416	307.05844	364.13675	
1007	5.030	-252.02968	401.19925	327.01541	-387.82114	399.40088	420.06818	-260.31393	247.86867	326.06018	-97.32333	260.26328	272.98990	-7.72279	227.57272	205.04575	38.01680	275.40759	301.60123	138.54010	358.47998	403.97098	208.08136	412.55185	499.05594	-9.17984	311.37485	174.32748	198.06416	307.05844	364.13675	
1008	5.035	-252.02968	401.19925	327.01541	-387.34552	399.25580	420.27667	-260.43292	247.89211	325.96933	-96.07381	262.02155	272.13007	-7.73712	227.54611	205.01770	38.01680	275.40759	301.60123	138.58488	358.67499	403.95197	208.08136	412.55185	499.05594	-9.17984	311.37485	174.32748	198.06416	307.05844	364.13675	
1009	5.040	-252.02968	401.19925	327.01541	-386.83008	398.54993	418.69821	-260.43292	247.89211	325.96933	-96.07381	262.02155	272.13007	-7.75146	227.51950	204.98967	38.01680	275.40759	301.60123	138.58488	358.67499	403.95197	208.08136	412.55185	499.05594	-9.17984	311.37485	174.32748	198.06416	307.05844	364.13675	
1010	5.045	-252.02968	401.19925	327.01541	-387.34552	399.25580	420.27667	-260.31393	247.86867	326.06018	-96.07381	262.02155	272.13007	-7.76580	227.49289	204.96164	38.01680	275.40759	301.60123	138.58488	358.67499	403.95197	208.08136	412.55185	499.05594	-9.17984	311.37485	174.32748	197.57814	307.20618	363.85712	
1011	5.050	-252.02968	401.19925	327.01541	-386.63168	398.56796	419.04269	-260.31393	247.86867	326.06018	-97.32333	260.26328	272.98990	-7.78014	227.46628	204.93359	38.01680	275.40759	301.60123	138.58488	358.67499	403.95197	207.99210	412.61032	499.01010	-9.17984	311.37485	174.32748	197.57814	307.20618	363.85712	
1012	5.055	-252.02968	401.19925	327.01541	-387.34552	399.25580	420.27667	-260.31393	247.86867	326.06018	-97.32333	260.26328	272.98990	-7.79448	227.43967	204.90556	38.85940	276.57529	301.22040	138.58488	358.67499	403.95197	207.99210	412.61032	499.01010	-9.17984	311.37485	174.32748	197.57814	307.20618	363.85712	
